<?xml version="1.0" encoding="UTF-8" ?>
<svg version="1.1" width="64" height="64" xmlns="http://www.w3.org/2000/svg" shape-rendering="crispEdges">
<rect x="30" y="19" width="1" height="1" fill="#FFFFFF" />
<rect x="31" y="19" width="1" height="1" fill="#FFFFFF" />
<rect x="32" y="19" width="1" height="1" fill="#FFFFFF" />
<rect x="33" y="19" width="1" height="1" fill="#FFFFFF" />
<rect x="28" y="20" width="1" height="1" fill="#FFFFFF" />
<rect x="29" y="20" width="1" height="1" fill="#FFFFFF" />
<rect x="30" y="20" width="1" height="1" fill="#FFFFFF" />
<rect x="31" y="20" width="1" height="1" fill="#FFFFFF" />
<rect x="32" y="20" width="1" height="1" fill="#FFFFFF" />
<rect x="33" y="20" width="1" height="1" fill="#FFFFFF" />
<rect x="34" y="20" width="1" height="1" fill="#FFFFFF" />
<rect x="35" y="20" width="1" height="1" fill="#FFFFFF" />
<rect x="26" y="21" width="1" height="1" fill="#FFFFFF" />
<rect x="27" y="21" width="1" height="1" fill="#FFFFFF" />
<rect x="28" y="21" width="1" height="1" fill="#FFFFFF" />
<rect x="29" y="21" width="1" height="1" fill="#FFFFFF" />
<rect x="34" y="21" width="1" height="1" fill="#FFFFFF" />
<rect x="35" y="21" width="1" height="1" fill="#FFFFFF" />
<rect x="36" y="21" width="1" height="1" fill="#FFFFFF" />
<rect x="37" y="21" width="1" height="1" fill="#FFFFFF" />
<rect x="24" y="22" width="1" height="1" fill="#FFFFFF" />
<rect x="25" y="22" width="1" height="1" fill="#FFFFFF" />
<rect x="26" y="22" width="1" height="1" fill="#FFFFFF" />
<rect x="27" y="22" width="1" height="1" fill="#FFFFFF" />
<rect x="36" y="22" width="1" height="1" fill="#FFFFFF" />
<rect x="37" y="22" width="1" height="1" fill="#FFFFFF" />
<rect x="38" y="22" width="1" height="1" fill="#FFFFFF" />
<rect x="39" y="22" width="1" height="1" fill="#FFFFFF" />
<rect x="24" y="23" width="1" height="1" fill="#FFFFFF" />
<rect x="25" y="23" width="1" height="1" fill="#FFFFFF" />
<rect x="38" y="23" width="1" height="1" fill="#FFFFFF" />
<rect x="39" y="23" width="1" height="1" fill="#FFFFFF" />
<rect x="13" y="27" width="1" height="1" fill="#FFFFFF" />
<rect x="14" y="27" width="1" height="1" fill="#FFFFFF" />
<rect x="49" y="27" width="1" height="1" fill="#FFFFFF" />
<rect x="50" y="27" width="1" height="1" fill="#FFFFFF" />
<rect x="11" y="28" width="1" height="1" fill="#FFFFFF" />
<rect x="12" y="28" width="1" height="1" fill="#FFFFFF" />
<rect x="13" y="28" width="1" height="1" fill="#FFFFFF" />
<rect x="14" y="28" width="1" height="1" fill="#FFFFFF" />
<rect x="49" y="28" width="1" height="1" fill="#FFFFFF" />
<rect x="50" y="28" width="1" height="1" fill="#FFFFFF" />
<rect x="51" y="28" width="1" height="1" fill="#FFFFFF" />
<rect x="52" y="28" width="1" height="1" fill="#FFFFFF" />
<rect x="9" y="29" width="1" height="1" fill="#FFFFFF" />
<rect x="10" y="29" width="1" height="1" fill="#FFFFFF" />
<rect x="11" y="29" width="1" height="1" fill="#FFFFFF" />
<rect x="12" y="29" width="1" height="1" fill="#FFFFFF" />
<rect x="51" y="29" width="1" height="1" fill="#FFFFFF" />
<rect x="52" y="29" width="1" height="1" fill="#FFFFFF" />
<rect x="53" y="29" width="1" height="1" fill="#FFFFFF" />
<rect x="54" y="29" width="1" height="1" fill="#FFFFFF" />
<rect x="7" y="30" width="1" height="1" fill="#FFFFFF" />
<rect x="8" y="30" width="1" height="1" fill="#FFFFFF" />
<rect x="9" y="30" width="1" height="1" fill="#FFFFFF" />
<rect x="10" y="30" width="1" height="1" fill="#FFFFFF" />
<rect x="53" y="30" width="1" height="1" fill="#FFFFFF" />
<rect x="54" y="30" width="1" height="1" fill="#FFFFFF" />
<rect x="55" y="30" width="1" height="1" fill="#FFFFFF" />
<rect x="56" y="30" width="1" height="1" fill="#FFFFFF" />
<rect x="5" y="31" width="1" height="1" fill="#FFFFFF" />
<rect x="6" y="31" width="1" height="1" fill="#FFFFFF" />
<rect x="7" y="31" width="1" height="1" fill="#FFFFFF" />
<rect x="8" y="31" width="1" height="1" fill="#FFFFFF" />
<rect x="55" y="31" width="1" height="1" fill="#FFFFFF" />
<rect x="56" y="31" width="1" height="1" fill="#FFFFFF" />
<rect x="57" y="31" width="1" height="1" fill="#FFFFFF" />
<rect x="58" y="31" width="1" height="1" fill="#FFFFFF" />
<rect x="5" y="32" width="1" height="1" fill="#FFFFFF" />
<rect x="6" y="32" width="1" height="1" fill="#FFFFFF" />
<rect x="7" y="32" width="1" height="1" fill="#FFFFFF" />
<rect x="8" y="32" width="1" height="1" fill="#FFFFFF" />
<rect x="55" y="32" width="1" height="1" fill="#FFFFFF" />
<rect x="56" y="32" width="1" height="1" fill="#FFFFFF" />
<rect x="57" y="32" width="1" height="1" fill="#FFFFFF" />
<rect x="58" y="32" width="1" height="1" fill="#FFFFFF" />
<rect x="7" y="33" width="1" height="1" fill="#FFFFFF" />
<rect x="8" y="33" width="1" height="1" fill="#FFFFFF" />
<rect x="9" y="33" width="1" height="1" fill="#FFFFFF" />
<rect x="10" y="33" width="1" height="1" fill="#FFFFFF" />
<rect x="53" y="33" width="1" height="1" fill="#FFFFFF" />
<rect x="54" y="33" width="1" height="1" fill="#FFFFFF" />
<rect x="55" y="33" width="1" height="1" fill="#FFFFFF" />
<rect x="56" y="33" width="1" height="1" fill="#FFFFFF" />
<rect x="9" y="34" width="1" height="1" fill="#FFFFFF" />
<rect x="10" y="34" width="1" height="1" fill="#FFFFFF" />
<rect x="11" y="34" width="1" height="1" fill="#FFFFFF" />
<rect x="12" y="34" width="1" height="1" fill="#FFFFFF" />
<rect x="51" y="34" width="1" height="1" fill="#FFFFFF" />
<rect x="52" y="34" width="1" height="1" fill="#FFFFFF" />
<rect x="53" y="34" width="1" height="1" fill="#FFFFFF" />
<rect x="54" y="34" width="1" height="1" fill="#FFFFFF" />
<rect x="11" y="35" width="1" height="1" fill="#FFFFFF" />
<rect x="12" y="35" width="1" height="1" fill="#FFFFFF" />
<rect x="13" y="35" width="1" height="1" fill="#FFFFFF" />
<rect x="14" y="35" width="1" height="1" fill="#FFFFFF" />
<rect x="49" y="35" width="1" height="1" fill="#FFFFFF" />
<rect x="50" y="35" width="1" height="1" fill="#FFFFFF" />
<rect x="51" y="35" width="1" height="1" fill="#FFFFFF" />
<rect x="52" y="35" width="1" height="1" fill="#FFFFFF" />
<rect x="13" y="36" width="1" height="1" fill="#FFFFFF" />
<rect x="14" y="36" width="1" height="1" fill="#FFFFFF" />
<rect x="49" y="36" width="1" height="1" fill="#FFFFFF" />
<rect x="50" y="36" width="1" height="1" fill="#FFFFFF" />
<rect x="24" y="40" width="1" height="1" fill="#FFFFFF" />
<rect x="25" y="40" width="1" height="1" fill="#FFFFFF" />
<rect x="38" y="40" width="1" height="1" fill="#FFFFFF" />
<rect x="39" y="40" width="1" height="1" fill="#FFFFFF" />
<rect x="24" y="41" width="1" height="1" fill="#FFFFFF" />
<rect x="25" y="41" width="1" height="1" fill="#FFFFFF" />
<rect x="26" y="41" width="1" height="1" fill="#FFFFFF" />
<rect x="27" y="41" width="1" height="1" fill="#FFFFFF" />
<rect x="36" y="41" width="1" height="1" fill="#FFFFFF" />
<rect x="37" y="41" width="1" height="1" fill="#FFFFFF" />
<rect x="38" y="41" width="1" height="1" fill="#FFFFFF" />
<rect x="39" y="41" width="1" height="1" fill="#FFFFFF" />
<rect x="26" y="42" width="1" height="1" fill="#FFFFFF" />
<rect x="27" y="42" width="1" height="1" fill="#FFFFFF" />
<rect x="28" y="42" width="1" height="1" fill="#FFFFFF" />
<rect x="29" y="42" width="1" height="1" fill="#FFFFFF" />
<rect x="34" y="42" width="1" height="1" fill="#FFFFFF" />
<rect x="35" y="42" width="1" height="1" fill="#FFFFFF" />
<rect x="36" y="42" width="1" height="1" fill="#FFFFFF" />
<rect x="37" y="42" width="1" height="1" fill="#FFFFFF" />
<rect x="28" y="43" width="1" height="1" fill="#FFFFFF" />
<rect x="29" y="43" width="1" height="1" fill="#FFFFFF" />
<rect x="30" y="43" width="1" height="1" fill="#FFFFFF" />
<rect x="31" y="43" width="1" height="1" fill="#FFFFFF" />
<rect x="32" y="43" width="1" height="1" fill="#FFFFFF" />
<rect x="33" y="43" width="1" height="1" fill="#FFFFFF" />
<rect x="34" y="43" width="1" height="1" fill="#FFFFFF" />
<rect x="35" y="43" width="1" height="1" fill="#FFFFFF" />
<rect x="30" y="44" width="1" height="1" fill="#FFFFFF" />
<rect x="31" y="44" width="1" height="1" fill="#FFFFFF" />
<rect x="32" y="44" width="1" height="1" fill="#FFFFFF" />
<rect x="33" y="44" width="1" height="1" fill="#FFFFFF" />
</svg>